<svg width="256" height="256" viewBox="0 0 256 256" fill="none" xmlns="http://www.w3.org/2000/svg">
<rect width="256" height="256" fill="#111315"/>
<rect x="70.6128" y="33.1046" width="151.116" height="151.116" rx="20" fill="#3767FB"/>
<rect x="35.271" y="70.8837" width="151.116" height="151.116" rx="20" fill="white"/>
<path fill-rule="evenodd" clip-rule="evenodd" d="M186.387 184.221H90.6128C79.5671 184.221 70.6128 175.267 70.6128 164.221V70.8837H166.387C177.433 70.8837 186.387 79.838 186.387 90.8837V184.221Z" fill="#BFCEFF"/>
<rect x="148.5" y="128.5" width="59" height="25" rx="12.5" fill="#191919"/>
<rect x="148.5" y="128.5" width="59" height="25" rx="12.5" stroke="#191919"/>
<path d="M161.048 145L163.904 136.6H165.62L168.476 145H167.288L166.4 142.408H163.124L162.236 145H161.048ZM163.472 141.376H166.052L164.768 137.608L163.472 141.376ZM171.756 145.192C170.22 145.192 169.152 143.884 169.152 142C169.152 140.116 170.22 138.808 171.756 138.808C172.728 138.808 173.472 139.336 173.796 140.2V136.6H174.936V145H173.796V143.788C173.472 144.652 172.728 145.192 171.756 145.192ZM170.328 142C170.328 143.284 171.024 144.16 172.056 144.16C173.088 144.16 173.784 143.284 173.784 142C173.784 140.716 173.088 139.84 172.056 139.84C171.024 139.84 170.328 140.716 170.328 142ZM184.304 141.196C184.304 140.344 183.896 139.84 183.176 139.84C182.216 139.84 181.628 140.704 181.628 142.084V145H180.488V141.196C180.488 140.344 180.08 139.84 179.36 139.84C178.4 139.84 177.812 140.704 177.812 142.084V145H176.672V139H177.812V140.008C178.148 139.276 178.832 138.808 179.696 138.808C180.572 138.808 181.208 139.3 181.484 140.14C181.82 139.336 182.588 138.808 183.512 138.808C184.712 138.808 185.444 139.708 185.444 141.172V145H184.304V141.196ZM187.187 145V139H188.327V145H187.187ZM187.067 138.076V136.804H188.459V138.076H187.067ZM194.085 141.196C194.085 140.344 193.665 139.84 192.933 139.84C191.949 139.84 191.289 140.728 191.289 142.084V145H190.149V139H191.289V140.044C191.637 139.288 192.369 138.808 193.269 138.808C194.481 138.808 195.225 139.696 195.225 141.172V145H194.085V141.196Z" fill="white"/>
<g filter="url(#filter0_d_7133_163)">
<path d="M135.083 112.871C134.587 111.176 136.372 109.717 137.934 110.54L152.318 118.118C153.879 118.94 153.688 121.233 152.013 121.786L147.019 123.436C146.551 123.591 146.156 123.914 145.911 124.342L143.299 128.908C142.423 130.439 140.138 130.169 139.643 128.475L135.083 112.871Z" fill="#191919"/>
</g>
<defs>
<filter id="filter0_d_7133_163" x="128.998" y="104.304" width="32.3879" height="33.611" filterUnits="userSpaceOnUse" color-interpolation-filters="sRGB">
<feFlood flood-opacity="0" result="BackgroundImageFix"/>
<feColorMatrix in="SourceAlpha" type="matrix" values="0 0 0 0 0 0 0 0 0 0 0 0 0 0 0 0 0 0 127 0" result="hardAlpha"/>
<feOffset dx="1" dy="1"/>
<feGaussianBlur stdDeviation="3.5"/>
<feComposite in2="hardAlpha" operator="out"/>
<feColorMatrix type="matrix" values="0 0 0 0 0.592157 0 0 0 0 0.301961 0 0 0 0 1 0 0 0 0.2 0"/>
<feBlend mode="normal" in2="BackgroundImageFix" result="effect1_dropShadow_7133_163"/>
<feBlend mode="normal" in="SourceGraphic" in2="effect1_dropShadow_7133_163" result="shape"/>
</filter>
</defs>
</svg>
